<svg width="60" height="24" viewBox="0 0 60 24" fill="none" xmlns="http://www.w3.org/2000/svg">
<path fill-rule="evenodd" clip-rule="evenodd" d="M35.8137 17.5839H48.5839C48.6335 17.5839 48.6832 17.5839 48.7329 17.5342H48.7826C48.8323 17.5342 48.8323 17.4845 48.8323 17.4845C48.8323 17.4845 48.8323 17.4348 48.882 17.4348L48.9317 17.3851V17.3354C48.9317 17.3354 48.9317 17.3354 48.9317 17.2857L50.4224 10.0311V9.98137C50.4224 9.98137 50.4224 9.98137 50.4224 9.93168C50.4224 9.93168 50.4224 9.93168 50.4224 9.88199C50.4224 9.8323 50.4224 9.8323 50.4224 9.8323C50.4224 9.8323 50.4224 9.78261 50.3727 9.78261C50.3727 9.78261 50.3727 9.73292 50.323 9.73292L50.2733 9.68323L50.2236 9.63354C50.2236 9.63354 50.1739 9.63354 50.1739 9.58385C50.1739 9.58385 50.1739 9.58385 50.1242 9.58385H50.0745C50.0745 9.58385 50.0745 9.58385 50.0248 9.58385H45.8012H44.7578H34.5714L34.0745 7.29814C34.0745 7.29814 34.0745 7.29814 34.0745 7.24845C34.0745 7.19876 34.0745 7.19876 34.0248 7.19876C34.0248 7.19876 34.0248 7.14907 33.9752 7.14907L33.9255 7.09938L33.8758 7.04969C33.8758 7.04969 33.8261 7.04969 33.8261 7C33.7764 7 33.7764 7 33.7267 7C33.7267 7 33.7267 7 33.677 7H30.3975C30.1988 7 30 7.14907 30 7.39752C30 7.64596 30.1491 7.79503 30.3975 7.79503H33.3789L35.3168 16.9379C34.472 17.1366 33.8261 17.882 33.8261 18.8261C33.8261 19.8696 34.6708 20.764 35.764 20.764H36.7081C36.559 20.9627 36.5093 21.2112 36.5093 21.5093C36.5093 22.354 37.1553 23 38 23C38.8447 23 39.4907 22.354 39.4907 21.5093C39.4907 21.2609 39.3913 20.9627 39.2919 20.764H45.0062C44.8571 20.9627 44.8075 21.2112 44.8075 21.5093C44.8075 22.354 45.4534 23 46.2981 23C47.1429 23 47.7888 22.354 47.7888 21.5093C47.7888 21.2609 47.6894 20.9627 47.5901 20.764H48.5342C48.7329 20.764 48.9317 20.6149 48.9317 20.3665C48.9317 20.118 48.7826 19.9689 48.5342 19.9689H35.8137C35.1677 19.9689 34.6211 19.4224 34.6211 18.7764C34.6211 18.1304 35.1677 17.5839 35.8137 17.5839ZM44.8075 10.3292H45.8509H49.6273L48.2857 16.8385H36.1118L34.7205 10.3292H44.8075ZM38.795 21.4596C38.795 21.8571 38.4472 22.205 38.0497 22.205C37.6522 22.205 37.3043 21.8571 37.3043 21.4596C37.3043 21.0621 37.6522 20.7143 38.0497 20.7143C38.4472 20.7143 38.795 21.0621 38.795 21.4596ZM47.0932 21.4596C47.0932 21.8571 46.7453 22.205 46.3478 22.205C45.9503 22.205 45.6025 21.8571 45.6025 21.4596C45.6025 21.0621 45.9503 20.7143 46.3478 20.7143C46.7453 20.7143 47.0932 21.0621 47.0932 21.4596Z" fill="url(#paint0_radial)"/>
<path d="M6.36 17.69H7.305C7.195 16.8 6.85 16.135 6.27 15.695C5.7 15.255 5 15.035 4.17 15.035C3.58 15.035 3.055 15.145 2.595 15.365C2.145 15.585 1.765 15.88 1.455 16.25C1.145 16.62 0.91 17.055 0.75 17.555C0.59 18.045 0.51 18.57 0.51 19.13C0.51 19.69 0.59 20.22 0.75 20.72C0.91 21.21 1.145 21.64 1.455 22.01C1.765 22.38 2.145 22.675 2.595 22.895C3.055 23.105 3.58 23.21 4.17 23.21C5.05 23.21 5.77 22.95 6.33 22.43C6.89 21.9 7.235 21.165 7.365 20.225H6.42C6.39 20.545 6.31 20.84 6.18 21.11C6.05 21.38 5.885 21.615 5.685 21.815C5.485 22.005 5.255 22.155 4.995 22.265C4.735 22.375 4.46 22.43 4.17 22.43C3.72 22.43 3.325 22.335 2.985 22.145C2.645 21.955 2.36 21.705 2.13 21.395C1.91 21.085 1.74 20.735 1.62 20.345C1.51 19.945 1.455 19.54 1.455 19.13C1.455 18.72 1.51 18.32 1.62 17.93C1.74 17.53 1.91 17.175 2.13 16.865C2.36 16.555 2.645 16.305 2.985 16.115C3.325 15.925 3.72 15.83 4.17 15.83C4.8 15.83 5.29 15.995 5.64 16.325C5.99 16.655 6.23 17.11 6.36 17.69ZM8.58832 17.63H9.53332C9.55332 17 9.75332 16.545 10.1333 16.265C10.5133 15.975 11.0033 15.83 11.6033 15.83C11.8833 15.83 12.1433 15.855 12.3833 15.905C12.6333 15.945 12.8483 16.025 13.0283 16.145C13.2183 16.265 13.3633 16.43 13.4633 16.64C13.5733 16.84 13.6283 17.1 13.6283 17.42C13.6283 17.63 13.5983 17.8 13.5383 17.93C13.4883 18.06 13.4133 18.165 13.3133 18.245C13.2133 18.315 13.0883 18.365 12.9383 18.395C12.7883 18.425 12.6133 18.45 12.4133 18.47C11.9033 18.53 11.3983 18.595 10.8983 18.665C10.4083 18.725 9.96332 18.835 9.56332 18.995C9.17332 19.155 8.85832 19.39 8.61832 19.7C8.37832 20 8.25832 20.42 8.25832 20.96C8.25832 21.35 8.32332 21.69 8.45332 21.98C8.59332 22.26 8.77832 22.495 9.00832 22.685C9.24832 22.865 9.52332 22.995 9.83332 23.075C10.1533 23.165 10.4933 23.21 10.8533 23.21C11.2333 23.21 11.5583 23.175 11.8283 23.105C12.1083 23.035 12.3533 22.935 12.5633 22.805C12.7833 22.675 12.9783 22.515 13.1483 22.325C13.3283 22.125 13.5033 21.9 13.6733 21.65H13.7033C13.7033 21.85 13.7133 22.035 13.7333 22.205C13.7633 22.365 13.8183 22.505 13.8983 22.625C13.9783 22.745 14.0883 22.84 14.2283 22.91C14.3783 22.97 14.5733 23 14.8133 23C14.9433 23 15.0483 22.995 15.1283 22.985C15.2183 22.975 15.3183 22.96 15.4283 22.94V22.145C15.3383 22.185 15.2383 22.205 15.1283 22.205C14.7583 22.205 14.5733 22.015 14.5733 21.635V17.525C14.5733 17.005 14.4883 16.585 14.3183 16.265C14.1483 15.935 13.9283 15.68 13.6583 15.5C13.3883 15.32 13.0833 15.2 12.7433 15.14C12.4033 15.07 12.0633 15.035 11.7233 15.035C11.2733 15.035 10.8633 15.085 10.4933 15.185C10.1233 15.285 9.79832 15.44 9.51832 15.65C9.24832 15.86 9.03332 16.13 8.87332 16.46C8.71332 16.79 8.61832 17.18 8.58832 17.63ZM13.6283 18.77V20C13.6283 20.38 13.5533 20.72 13.4033 21.02C13.2633 21.32 13.0683 21.575 12.8183 21.785C12.5783 21.995 12.2933 22.155 11.9633 22.265C11.6333 22.375 11.2883 22.43 10.9283 22.43C10.7083 22.43 10.4933 22.395 10.2833 22.325C10.0733 22.255 9.88832 22.155 9.72832 22.025C9.56832 21.885 9.43832 21.725 9.33832 21.545C9.24832 21.355 9.20332 21.14 9.20332 20.9C9.20332 20.52 9.31332 20.23 9.53332 20.03C9.76332 19.82 10.0533 19.66 10.4033 19.55C10.7533 19.44 11.1383 19.36 11.5583 19.31C11.9883 19.25 12.4033 19.185 12.8033 19.115C12.9333 19.095 13.0833 19.06 13.2533 19.01C13.4233 18.96 13.5383 18.88 13.5983 18.77H13.6283ZM16.4566 15.26V23H17.4016V18.875C17.4016 18.465 17.4716 18.09 17.6116 17.75C17.7516 17.4 17.9466 17.1 18.1966 16.85C18.4566 16.6 18.7616 16.41 19.1116 16.28C19.4616 16.14 19.8516 16.08 20.2816 16.1V15.155C19.5816 15.125 18.9766 15.28 18.4666 15.62C17.9666 15.96 17.5966 16.445 17.3566 17.075H17.3266V15.26H16.4566ZM22.6881 15.26V12.935H21.7431V15.26H20.3931V16.055H21.7431V21.35C21.7331 22.01 21.8531 22.465 22.1031 22.715C22.3531 22.955 22.7931 23.075 23.4231 23.075C23.5631 23.075 23.7031 23.07 23.8431 23.06C23.9831 23.05 24.1231 23.045 24.2631 23.045V22.25C23.9931 22.28 23.7231 22.295 23.4531 22.295C23.1131 22.275 22.8981 22.18 22.8081 22.01C22.7281 21.83 22.6881 21.585 22.6881 21.275V16.055H24.2631V15.26H22.6881Z" fill="#C90EA5"/>
<rect x="44.5" y="0.5" width="15" height="15" rx="7.5" fill="#FF1876" stroke="white"/>
<path d="M51.5515 7.81C51.7195 7.816 51.8875 7.804 52.0555 7.774C52.2235 7.744 52.3735 7.693 52.5055 7.621C52.6375 7.543 52.7425 7.438 52.8205 7.306C52.9045 7.174 52.9465 7.012 52.9465 6.82C52.9465 6.55 52.8535 6.334 52.6675 6.172C52.4875 6.01 52.2535 5.929 51.9655 5.929C51.7855 5.929 51.6295 5.965 51.4975 6.037C51.3655 6.109 51.2545 6.208 51.1645 6.334C51.0805 6.454 51.0175 6.592 50.9755 6.748C50.9335 6.898 50.9155 7.054 50.9215 7.216H49.8955C49.9075 6.91 49.9645 6.628 50.0665 6.37C50.1685 6.106 50.3065 5.878 50.4805 5.686C50.6605 5.494 50.8765 5.344 51.1285 5.236C51.3805 5.128 51.6655 5.074 51.9835 5.074C52.2295 5.074 52.4695 5.11 52.7035 5.182C52.9435 5.254 53.1565 5.359 53.3425 5.497C53.5345 5.635 53.6875 5.812 53.8015 6.028C53.9155 6.238 53.9725 6.481 53.9725 6.757C53.9725 7.075 53.9005 7.354 53.7565 7.594C53.6125 7.828 53.3875 7.999 53.0815 8.107V8.125C53.4415 8.197 53.7205 8.377 53.9185 8.665C54.1225 8.947 54.2245 9.292 54.2245 9.7C54.2245 10 54.1645 10.27 54.0445 10.51C53.9245 10.744 53.7625 10.945 53.5585 11.113C53.3545 11.275 53.1175 11.401 52.8475 11.491C52.5775 11.581 52.2925 11.626 51.9925 11.626C51.6265 11.626 51.3055 11.575 51.0295 11.473C50.7595 11.365 50.5315 11.215 50.3455 11.023C50.1655 10.831 50.0275 10.6 49.9315 10.33C49.8355 10.06 49.7845 9.76 49.7785 9.43H50.8045C50.7925 9.814 50.8855 10.135 51.0835 10.393C51.2875 10.645 51.5905 10.771 51.9925 10.771C52.3345 10.771 52.6195 10.675 52.8475 10.483C53.0815 10.285 53.1985 10.006 53.1985 9.646C53.1985 9.4 53.1505 9.205 53.0545 9.061C52.9585 8.917 52.8325 8.809 52.6765 8.737C52.5205 8.659 52.3435 8.611 52.1455 8.593C51.9535 8.575 51.7555 8.569 51.5515 8.575V7.81Z" fill="white"/>
<defs>
<radialGradient id="paint0_radial" cx="0" cy="0" r="1" gradientUnits="userSpaceOnUse" gradientTransform="translate(46.3359 19.248) rotate(-143.645) scale(14.6092 7.55667)">
<stop stop-color="#7E00E8"/>
<stop offset="0.401611" stop-color="#FF1876"/>
<stop offset="1" stop-color="#BB0CB2"/>
</radialGradient>
</defs>
</svg>
